<svg width="139" height="159" viewBox="0 0 139 159" fill="none" xmlns="http://www.w3.org/2000/svg">
<path d="M8.3409 67.0006V95.5006M8.3409 67.0006H43.3409M8.3409 67.0006L2.34093 47.0005C0.841001 40.5006 4.34092 32.8082 11.8409 30.5005C12.9733 30.1521 14.1676 29.6425 16.3409 29.0006M8.3409 67.0006L44.3409 56.3176M59.3409 156.001C51.5076 156.001 32.9409 156.001 21.3409 156.001C9.7409 156.001 7.8409 145.334 8.3409 140.001V95.5006M86.3409 156.001H123.341C127.841 156.501 136.841 154.401 136.841 142.001C136.841 134.156 136.841 114.157 136.841 95.5006M8.3409 95.5006H27.3409M136.841 95.5006C136.841 84.6673 136.841 70.0006 136.841 67.0006H133.341H117.091M136.841 95.5006H101.341M27.3409 95.5006L43.3409 67.0006M27.3409 95.5006H51.8409M43.3409 67.0006H68.8409M68.8409 67.0006L51.8409 95.5006M68.8409 67.0006H92.8409M51.8409 95.5006H76.8409M92.8409 67.0006L76.8409 95.5006M92.8409 67.0006H117.091M76.8409 95.5006H101.341M117.091 67.0006L101.341 95.5006M87.3409 8.65245C95.3989 6.34375 102.826 4.2191 108.841 2.50054C113.841 1.07189 122.639 2.39501 125.341 10.5006C128.841 21.0006 130.841 28.3339 131.341 30.5005L114.841 35.3969M87.3409 8.65245L114.841 35.3969M87.3409 8.65245C79.687 10.8454 70.9639 13.1659 62.8409 15.5006M114.841 35.3969L91.3409 42.3705M62.8409 15.5006L91.3409 42.3705M62.8409 15.5006C54.8666 17.7926 46.4888 20.4354 39.3409 22.5006M91.3409 42.3705L67.8409 49.344M39.3409 22.5006L67.8409 49.344M39.3409 22.5006C29.6372 25.3042 21.7694 27.3972 16.3409 29.0006M67.8409 49.344L44.3409 56.3176M16.3409 29.0006L44.3409 56.3176M63.3409 109.001V142.001L91.3409 125.501L63.3409 109.001ZM72.3409 155.001V155.001C71.7887 155.001 71.3409 155.448 71.3409 156.001V156.001C71.3409 156.553 71.7887 157.001 72.3409 157.001V157.001C72.8932 157.001 73.3409 156.553 73.3409 156.001V156.001C73.3409 155.448 72.8932 155.001 72.3409 155.001Z" stroke="white" stroke-width="4" stroke-linecap="round"/>
</svg>
