<svg width="24" height="31" viewBox="0 0 24 31" fill="none" xmlns="http://www.w3.org/2000/svg">
<path fill-rule="evenodd" clip-rule="evenodd" d="M13.9926 7.23602L12.9259 7.85185L13.7172 9.22238C13.0507 9.07674 12.3584 9 11.6481 9C6.31962 9 2 13.3196 2 18.6481C2 23.9767 6.31962 28.2963 11.6481 28.2963C16.9767 28.2963 21.2963 23.9767 21.2963 18.6481C21.2963 16.954 20.8597 15.3619 20.0928 13.9781L21.8254 12.9778C22.7623 14.6559 23.2963 16.5897 23.2963 18.6481C23.2963 25.0812 18.0812 30.2963 11.6481 30.2963C5.21505 30.2963 0 25.0812 0 18.6481C0 12.2151 5.21505 7 11.6481 7C12.4512 7 13.2353 7.08126 13.9926 7.23602Z" fill="white"/>
<path d="M14.4849 8.55896C14.8754 8.16843 14.8754 7.53527 14.4849 7.14475L8.12092 0.780785C7.7304 0.390261 7.09723 0.390261 6.70671 0.780785C6.31619 1.17131 6.31619 1.80447 6.70671 2.195L12.3636 7.85185L6.70671 13.5087C6.31619 13.8992 6.31619 14.5324 6.70671 14.9229C7.09724 15.3134 7.7304 15.3134 8.12092 14.9229L14.4849 8.55896ZM12.9259 8.85185L13.7778 8.85185L13.7778 6.85185L12.9259 6.85185L12.9259 8.85185Z" fill="white"/>
<path d="M15.963 18.8333L10 15V22.6667L15.963 18.8333Z" stroke="white" stroke-width="2" stroke-linejoin="round"/>
</svg>
