<svg width="135" height="135" viewBox="0 0 135 135" fill="none" xmlns="http://www.w3.org/2000/svg">
<path d="M108 75.5H132C132.552 75.5 133 75.0523 133 74.5V38.5V33.5V29.5V3C133 2.44772 132.552 2 132 2H41.5C40.9477 2 40.5 2.44771 40.5 3L40.5 27M108 75.5C108.5 78 109.5 81.1 105.5 85.5M108 75.5C106.182 71.41 101.335 69.6605 98.3401 69.5009C97.8546 69.475 97.4234 69.1498 97.2751 68.6868C95.4905 63.117 89.9465 62.4383 86.7254 62.8755C86.2908 62.9345 85.8579 62.736 85.6252 62.3642C81.6146 55.9552 75.5848 58.3998 73 60.5M105.5 85.5L98.627 131.647C98.554 132.137 98.1333 132.5 97.6379 132.5H89M105.5 85.5H93.25M41 85.5H53M41 85.5C38.8727 80.918 37.3559 71.4515 47.903 69.595C48.265 69.5313 48.5755 69.2849 48.722 68.9478C50.0719 65.8419 53.7818 61.1113 59.7768 62.772C60.2081 62.8915 60.6746 62.7459 60.9564 62.3982C63.2257 59.5981 68.1562 56.0288 73 60.5M41 85.5L42.9947 98M53 85.5L57.5 132.5M53 85.5H65.5M57.5 132.5H49.3531C48.8616 132.5 48.443 132.143 48.3656 131.658L42.9947 98M57.5 132.5H67M65.5 85.5L67 132.5M65.5 85.5H81M67 132.5H79.5M81 85.5L79.5 132.5M81 85.5H93.25M79.5 132.5H89M93.25 85.5L89 132.5M73 60.5V52C73 51.4477 72.5523 51 72 51H5.5M5.5 51V97C5.5 97.5523 5.94772 98 6.5 98H12.5M5.5 51L2.67782 35.478C2.57944 34.9369 2.93646 34.418 3.47696 34.3164L19.5 31.3045M5.5 51L13.8013 49.3772M20.5 98H42.9947M13 74.5H31M13 64H40.5M19.5 31.3045L13.8013 49.3772M19.5 31.3045L33 28.7669M13.8013 49.3772L27.5 46.6992M27.5 46.6992L33 28.7669M27.5 46.6992L41 44.0601M33 28.7669L40.5 27M46.5 26.2293L41 44.0601M46.5 26.2293L60.5 23.5977M46.5 26.2293L40.5 27M41 44.0601L55 41.3233M60.5 23.5977L68.0168 22.1848C68.5597 22.0828 69.0826 22.4403 69.1844 22.9833L71.8171 37.0247C71.9184 37.5645 71.5652 38.085 71.0261 38.1904L55 41.3233M60.5 23.5977L55 41.3233M83.008 49.1107L99.5068 39.3806C100.17 38.9894 100.161 38.0267 99.4901 37.6483L82.9913 28.3413C82.3247 27.9652 81.5 28.4469 81.5 29.2122V48.2493C81.5 49.0232 82.3414 49.5038 83.008 49.1107Z" stroke="white" stroke-width="4" stroke-linecap="round"/>
</svg>
