<svg width="23" height="27" viewBox="0 0 23 27" fill="none" xmlns="http://www.w3.org/2000/svg">
<path d="M7.79412 8.14286H20.7647M4.70588 8.14286H1.61765M1.61765 8.14286V8.14286C1.27653 8.14286 1 7.86633 1 7.52521V6.05952C1 4.90893 1.93274 3.97619 3.08333 3.97619H7.79412M1.61765 8.14286L4.27547 23.5112C4.5242 24.9495 5.77199 26 7.23159 26H15.6806C17.1786 26 18.447 24.895 18.6523 23.4111L20.7647 8.14286M20.7647 8.14286V8.14286C21.4469 8.14286 22 7.5898 22 6.90756V6.05952C22 4.90893 21.0673 3.97619 19.9167 3.97619H15.2059M7.79412 3.97619V3.97619C7.79412 2.33249 9.1266 1 10.7703 1H12.2297C13.8734 1 15.2059 2.33249 15.2059 3.97619V3.97619M7.79412 3.97619H15.2059M6.55882 11.119L7.79412 23.0238M11.5 11.119V23.0238M16.4412 11.119L15.2059 23.0238" stroke="white" stroke-width="2" stroke-linecap="round" stroke-linejoin="round"/>
</svg>
