<svg width="49" height="49" viewBox="0 0 49 49" fill="none" xmlns="http://www.w3.org/2000/svg">
<path d="M48 24.5C48 37.4787 37.4787 48 24.5 48C11.5213 48 1 37.4787 1 24.5C1 11.5213 11.5213 1 24.5 1C37.4787 1 48 11.5213 48 24.5Z" stroke="white"/>
<path d="M32.7612 26.4228C32.7612 28.276 31.4612 29.7783 29.8576 29.7783C28.254 29.7783 26.954 28.276 26.954 26.4228C26.954 24.5696 28.254 23.0673 29.8576 23.0673C31.4612 23.0673 32.7612 24.5696 32.7612 26.4228Z" stroke="white"/>
<path d="M21.1469 26.4228C21.1469 28.276 19.847 29.7783 18.2434 29.7783C16.6398 29.7783 15.3398 28.276 15.3398 26.4228C15.3398 24.5696 16.6398 23.0673 18.2434 23.0673C19.847 23.0673 21.1469 24.5696 21.1469 26.4228Z" stroke="white"/>
<path d="M31.3097 14.4381C25.8897 12.9042 17.1327 14.3536 16.7919 14.438C16.4512 14.5223 16.3079 14.4381 16.7919 13.9588C17.2758 13.4794 17.2758 13 16.7919 13C15.824 13 12.6776 13.4803 11.9523 14.4381C7.59676 20.1903 6.62913 28.3392 7.11339 32.6534C7.29081 34.234 14.6626 37.3511 15.8241 36.9676C16.9855 36.5841 17.1503 35.7605 16.7916 35.0502C15.8234 33.1327 17.7595 33.1327 17.7595 33.1327C17.7595 33.1327 23.5666 34.5708 30.3418 33.1328C31.1683 32.9574 32.084 33.8998 31.3097 35.0502C30.5354 36.2006 31.4324 36.9677 32.2776 36.9676C33.2451 36.9676 40.9879 34.0915 40.9882 32.6534C40.9887 30.2566 41.4747 22.5856 36.149 14.4381C35.7531 13.8325 32.2775 13.0001 31.3097 13C30.9317 13 30.9226 13.5752 31.3097 13.9587C31.6968 14.3422 31.4619 14.4812 31.3097 14.4381Z" stroke="white"/>
</svg>
