<svg width="139" height="128" viewBox="0 0 139 128" fill="none" xmlns="http://www.w3.org/2000/svg">
<path d="M14.5001 47.5L3.50005 89C2.66672 92 1.5 98.1562 9.00005 100.5C15.4001 102.5 72.3334 117.667 100 125C103 125.795 107.727 126.5 109.5 120C110.7 115.6 113.833 106.333 115 102M26.1248 84C26.0437 83.5367 26.0001 83.0376 26.0001 82.5C26.0001 75 26.0001 19 26.0001 11C26.0001 3 34.5001 2 34.5001 2H128.5C128.5 2 137 2 137 11C137 17.6628 137 51.225 137 70M26.1248 84C27.175 90 34.5001 90 34.5001 90H115H128.5C130.5 90 137 90 137 82.5C137 81.3526 137 76.5862 137 70M26.1248 84C26.1248 84 51 53.7083 58 54C65 54.2917 65 67 72.5 67C80 67 82.5421 58.9128 86 51.75C89.5 44.5 93.5 36.5 103 36C112.5 35.5 120 47.25 124 51.75C128 56.25 137 70 137 70M52.5 38.5V38.5C57.7467 38.5 62 34.2467 62 29V29C62 23.7533 57.7467 19.5 52.5 19.5V19.5C47.2533 19.5 43 23.7533 43 29V29C43 34.2467 47.2533 38.5 52.5 38.5Z" stroke="white" stroke-width="4" stroke-linecap="round"/>
</svg>
