<svg width="25" height="25" viewBox="0 0 25 25" fill="none" xmlns="http://www.w3.org/2000/svg">
<rect x="1" y="1" width="23" height="23" rx="3" stroke="white" stroke-width="2"/>
<path d="M4.50473 16C4.35806 16 4.23473 15.95 4.13473 15.85C4.04139 15.75 3.99473 15.63 3.99473 15.49C3.99473 15.3433 4.04139 15.2233 4.13473 15.13L6.97473 11.81C7.17473 11.5767 7.32806 11.3567 7.43473 11.15C7.54806 10.9433 7.60473 10.7467 7.60473 10.56C7.60473 10.2667 7.55473 10.0133 7.45473 9.8C7.35473 9.58667 7.21139 9.42333 7.02473 9.31C6.83806 9.19 6.61473 9.13 6.35473 9.13C6.10139 9.13 5.87139 9.19667 5.66473 9.33C5.46473 9.45667 5.30473 9.63 5.18473 9.85C5.07139 10.0633 5.01473 10.3 5.01473 10.56C5.01473 10.6933 4.96473 10.81 4.86473 10.91C4.77139 11.01 4.65139 11.06 4.50473 11.06C4.36473 11.06 4.24473 11.01 4.14473 10.91C4.04473 10.81 3.99473 10.6933 3.99473 10.56C3.99473 10.1067 4.09806 9.70333 4.30473 9.35C4.51139 8.99 4.79139 8.70667 5.14473 8.5C5.50473 8.29333 5.90806 8.19 6.35473 8.19C6.80806 8.19 7.20139 8.28667 7.53473 8.48C7.86806 8.67333 8.12473 8.94667 8.30473 9.3C8.49139 9.65333 8.58473 10.0733 8.58473 10.56C8.58473 10.7733 8.53806 10.99 8.44473 11.21C8.35806 11.43 8.24473 11.64 8.10473 11.84C7.97139 12.04 7.83473 12.22 7.69473 12.38L5.40473 14.98H8.20473C8.35139 14.98 8.47473 15.0333 8.57473 15.14C8.67473 15.24 8.72473 15.3567 8.72473 15.49C8.72473 15.63 8.67473 15.75 8.57473 15.85C8.47473 15.95 8.35139 16 8.20473 16H4.50473ZM12.2032 16.04C11.6699 16.04 11.1932 15.92 10.7732 15.68C10.3599 15.4333 10.0332 15.1033 9.79324 14.69C9.55991 14.27 9.44324 13.7967 9.44324 13.27C9.44324 12.73 9.55991 12.25 9.79324 11.83C10.0266 11.41 10.3466 11.0833 10.7532 10.85C11.1599 10.61 11.6266 10.49 12.1532 10.49C12.5466 10.49 12.9066 10.5667 13.2332 10.72C13.5599 10.8667 13.8532 11.09 14.1132 11.39C14.2066 11.4967 14.2399 11.6067 14.2132 11.72C14.1866 11.8333 14.1132 11.9333 13.9932 12.02C13.8999 12.0867 13.7966 12.11 13.6832 12.09C13.5699 12.0633 13.4666 12.0033 13.3732 11.91C13.0466 11.5633 12.6399 11.39 12.1532 11.39C11.8132 11.39 11.5132 11.47 11.2532 11.63C10.9932 11.7833 10.7899 12 10.6432 12.28C10.4966 12.56 10.4232 12.89 10.4232 13.27C10.4232 13.63 10.4966 13.95 10.6432 14.23C10.7966 14.51 11.0066 14.7333 11.2732 14.9C11.5399 15.06 11.8499 15.14 12.2032 15.14C12.4366 15.14 12.6399 15.1133 12.8132 15.06C12.9932 15 13.1566 14.91 13.3032 14.79C13.4099 14.7033 13.5199 14.6567 13.6332 14.65C13.7466 14.6367 13.8466 14.6667 13.9332 14.74C14.0466 14.8333 14.1099 14.94 14.1232 15.06C14.1366 15.1733 14.0966 15.2767 14.0032 15.37C13.5232 15.8167 12.9232 16.04 12.2032 16.04ZM16.2391 14.01C16.0924 14.01 15.9691 13.9633 15.8691 13.87C15.7758 13.77 15.7291 13.6467 15.7291 13.5V8.7C15.7291 8.54667 15.7758 8.42333 15.8691 8.33C15.9691 8.23667 16.0924 8.19 16.2391 8.19C16.3924 8.19 16.5158 8.23667 16.6091 8.33C16.7024 8.42333 16.7491 8.54667 16.7491 8.7V13.5C16.7491 13.6467 16.7024 13.77 16.6091 13.87C16.5158 13.9633 16.3924 14.01 16.2391 14.01ZM20.3491 16.01C20.2024 16.01 20.0791 15.9633 19.9791 15.87C19.8858 15.77 19.8391 15.6467 19.8391 15.5V13.04C19.8391 12.66 19.7691 12.35 19.6291 12.11C19.4891 11.87 19.2991 11.6933 19.0591 11.58C18.8258 11.46 18.5558 11.4 18.2491 11.4C17.9691 11.4 17.7158 11.4567 17.4891 11.57C17.2624 11.6833 17.0824 11.8367 16.9491 12.03C16.8158 12.2167 16.7491 12.4333 16.7491 12.68H16.1191C16.1191 12.26 16.2191 11.8867 16.4191 11.56C16.6258 11.2267 16.9058 10.9633 17.2591 10.77C17.6124 10.5767 18.0091 10.48 18.4491 10.48C18.9091 10.48 19.3191 10.58 19.6791 10.78C20.0458 10.9733 20.3324 11.26 20.5391 11.64C20.7524 12.02 20.8591 12.4867 20.8591 13.04V15.5C20.8591 15.6467 20.8091 15.77 20.7091 15.87C20.6158 15.9633 20.4958 16.01 20.3491 16.01ZM16.2391 16.01C16.0924 16.01 15.9691 15.9633 15.8691 15.87C15.7758 15.77 15.7291 15.6467 15.7291 15.5V11.04C15.7291 10.8867 15.7758 10.7633 15.8691 10.67C15.9691 10.5767 16.0924 10.53 16.2391 10.53C16.3924 10.53 16.5158 10.5767 16.6091 10.67C16.7024 10.7633 16.7491 10.8867 16.7491 11.04V15.5C16.7491 15.6467 16.7024 15.77 16.6091 15.87C16.5158 15.9633 16.3924 16.01 16.2391 16.01Z" fill="white"/>
</svg>
