<svg width="23" height="27" viewBox="0 0 23 27" fill="none" xmlns="http://www.w3.org/2000/svg">
<path d="M22.7071 8.70711C23.0976 8.31658 23.0976 7.68342 22.7071 7.29289L16.3431 0.928932C15.9526 0.538408 15.3195 0.538408 14.9289 0.928932C14.5384 1.31946 14.5384 1.95262 14.9289 2.34315L20.5858 8L14.9289 13.6569C14.5384 14.0474 14.5384 14.6805 14.9289 15.0711C15.3195 15.4616 15.9526 15.4616 16.3431 15.0711L22.7071 8.70711ZM20 9H22V7H20V9Z" fill="white"/>
<path d="M1 27C1 13.6296 6.98148 8 20 8" stroke="white" stroke-width="2" stroke-linejoin="round"/>
<path d="M6 17L10 26L14 17" stroke="white" stroke-width="2" stroke-linecap="round" stroke-linejoin="round"/>
<path d="M15 21V23.5M15 26V23.5M15 23.5H16.5M19 26L16.5 23.5M19 21L16.5 23.5" stroke="white" stroke-width="2" stroke-linecap="round" stroke-linejoin="round"/>
</svg>
