<svg width="33" height="30" viewBox="0 0 33 30" fill="none" xmlns="http://www.w3.org/2000/svg">
<path fill-rule="evenodd" clip-rule="evenodd" d="M0.0321274 15.197C0.0321274 10.6699 3.70205 7 8.22913 7H23.8882C28.4152 7 32.0852 10.6699 32.0852 15.197C32.0852 19.7241 28.4152 23.394 23.8882 23.394H8.22913C3.70205 23.394 0.0321274 19.7241 0.0321274 15.197ZM8.22913 9C4.80662 9 2.03213 11.7745 2.03213 15.197C2.03213 18.6195 4.80662 21.394 8.22913 21.394H14.0551V23.3867H17.0604V21.394H23.8882C27.3107 21.394 30.0852 18.6195 30.0852 15.197C30.0852 11.7745 27.3107 9 23.8882 9H18.0622V7.00731H15.0569V9H8.22913Z" fill="white"/>
<path d="M17.5777 7.29289C17.1872 7.68342 17.1872 8.31658 17.5777 8.70711L23.9417 15.0711C24.3322 15.4616 24.9653 15.4616 25.3559 15.0711C25.7464 14.6805 25.7464 14.0474 25.3559 13.6569L19.699 8L25.3559 2.34315C25.7464 1.95262 25.7464 1.31946 25.3559 0.928932C24.9653 0.538408 24.3322 0.538408 23.9417 0.928932L17.5777 7.29289ZM19.2866 7L18.2848 7L18.2848 9L19.2866 9L19.2866 7Z" fill="white"/>
<path d="M14.9848 23.046C15.3754 22.6554 15.3754 22.0223 14.9848 21.6318L8.62087 15.2678C8.23035 14.8773 7.59718 14.8773 7.20666 15.2678C6.81613 15.6583 6.81613 16.2915 7.20666 16.682L12.8635 22.3389L7.20666 27.9957C6.81613 28.3862 6.81613 29.0194 7.20666 29.4099C7.59718 29.8005 8.23035 29.8005 8.62087 29.4099L14.9848 23.046ZM13.276 23.3389H14.2777V21.3389H13.276V23.3389Z" fill="white"/>
</svg>
