<svg width="49" height="49" viewBox="0 0 49 49" fill="none" xmlns="http://www.w3.org/2000/svg">
<path d="M48 24.5C48 37.4787 37.4787 48 24.5 48C11.5213 48 1 37.4787 1 24.5C1 11.5213 11.5213 1 24.5 1C37.4787 1 48 11.5213 48 24.5Z" stroke="white"/>
<path d="M15.5965 18.5114C14.5966 18.5121 12.0965 18.5119 11.0965 18.5114C10.0964 18.5109 17.0969 32.0121 21.5966 32.5121C22.5906 32.6226 25.1969 32.5121 25.5969 32.5121C25.9969 32.5121 26.0526 32.1893 26.0969 32.0121C26.2636 31.3455 26.0974 31.0129 26.5969 30.0121C26.8496 29.506 27.5244 29.225 28.0965 29.5114C29.0969 30.0121 30.0969 31.0121 31.0969 32.0121C31.5351 32.4503 31.5969 32.5121 32.0965 32.5114H37.0965C37.8965 32.5114 37.4303 31.8455 37.0969 31.5121C36.0969 30.3455 33.8965 27.8114 33.0965 27.0114C32.2965 26.2114 33.0969 25.0121 33.0969 25.0121C33.0969 25.0121 34.0974 23.5129 35.0969 22.0121C36.0965 20.5114 37.0965 19.4114 37.0965 19.0114C37.0965 18.6114 36.7632 18.5114 36.5965 18.5114H32.5965C31.7965 18.5114 31.5965 19.0114 31.5965 19.0114C31.5965 19.0114 28.0965 24.5114 27.0965 25.0114C26.2965 25.4114 26.0965 25.1781 26.0965 25.0114V19.0114C26.0965 18.2114 25.4298 18.0114 25.0965 18.0114C23.0965 18.0114 19.4645 17.8796 20.0969 18.5121C20.5969 19.0122 21.0965 19.3447 21.0965 19.5114V24.5114C21.0965 24.9114 20.7632 25.0114 20.5965 25.0114C17.5966 25.0121 16.5964 18.5107 15.5965 18.5114Z" stroke="white"/>
</svg>
