<svg width="406" height="370" viewBox="0 0 406 370" fill="none" xmlns="http://www.w3.org/2000/svg">
<circle cx="174.5" cy="175.5" r="172.5" fill="white"/>
<path d="M141.947 247.029C141.381 246.515 140.897 246.005 140.5 245.5C140.964 246.02 141.447 246.53 141.947 247.029C157.076 260.759 230.523 276.594 244.5 239C243.028 270.406 168.353 273.397 141.947 247.029Z" fill="black"/>
<path d="M105.5 277C110.167 286.667 124.1 307.6 142.5 314C130.5 304.5 119.093 297 105.5 277Z" fill="black"/>
<path d="M181.5 320.5C147.9 317.7 115.5 282.667 103.5 265.5C108.7 266.7 116.5 277 124 288C124.5 288.733 128.7 293.5 143.5 303.5C158.3 313.5 175 319 181.5 320.5Z" fill="black"/>
<path d="M239.5 316.5C204.7 323.3 160.667 305 143 295C147.8 295 161.667 301 168 304C204.5 321 232 316.5 236 315C261.5 298 256.5 262 250.5 252.5C252.5 248.9 254 253 254.5 255.5L256 263.5C256.333 264 257.1 264.8 257.5 264C257.9 263.2 258 262.333 258 262C260 262.4 259.833 269.5 259.5 273C258.3 276.6 257.667 282.833 257.5 285.5C259.5 285.5 261 281.5 261.5 279.5C262.3 276.3 261.833 269.833 261.5 267C260.7 263.4 262.167 260.833 263 260C268 283 250.5 303 239.5 316.5Z" fill="black"/>
<path d="M268.5 268C266.5 282 264 296 249.5 317.5C259 306 269 295 268.5 268Z" fill="black"/>
<path d="M104 47.5001C129 34 146.667 40.3334 150.5 45.5001C148.5 35.1001 135.667 35.1667 129.5 36.5C114.5 39.5 107 44 104 47.5001Z" fill="black"/>
<path fill-rule="evenodd" clip-rule="evenodd" d="M93.5 117.5C90.3 115.5 77.5 114.667 71.5 114.5C73.6667 114 82.9 113.2 102.5 114C122.1 114.8 133 114.333 136 114C126.672 111.054 113.006 110.519 88.3761 109.554L87 109.5C66.6 108.7 52.8333 106.167 48.5 105C53.3 101.4 59.1667 98.5 61.5 97.5C99.5 83.9 135 93.8333 148 100.5C153.6 103.3 159.667 108.333 162 110.5C159.5 112.5 154 108.5 152.5 106.5C151.3 104.9 148.667 103.167 147.5 102.5C143.9 100.5 144.333 102.667 145 104C145.5 104.5 147.4 106 151 108C154.6 110 155.167 112.833 155 114L152.5 115L143 119C138.2 121.4 137.667 125 138 126.5C137.6 124.9 136.5 124.167 136 124C129.6 119.6 116.667 121.5 111 123C111 120.5 112.5 120 116 119.5C118.173 119.19 121.116 119.65 123.634 120.044C125.172 120.284 126.552 120.5 127.5 120.5C129.5 120.5 129 119.833 128.5 119.5L125 118.5C120.2 116.5 107.333 117.333 101.5 118C91.1 119.2 80.1667 119.5 76 119.5C76 116.7 78.6667 116.667 80 117C84.8 118.2 90 118.5 92 118.5C94 118.1 93.8333 117.667 93.5 117.5ZM87.5 94L85 93.5C83.8 94.7 77.5 96 74 96.5C64.4 97.7 59.6667 101.833 59 103.5C60.2 103.5 63.1667 103.833 64.5 104C71.3 105.2 81.5 105.667 85.5 105.5C84.211 103.781 84.3989 101.693 84.4773 100.823L84.4773 100.823C84.4901 100.68 84.5 100.57 84.5 100.5C84.5 100 86.5 97 87.5 96C88.3 95.2 88 94.1667 87.5 94ZM115.5 97.5C117.5 97.8333 120.8 101 116 109C118.667 108.667 125.8 108.5 133 110.5C140.2 112.5 145.667 110.333 147.5 109C144.667 106 137.714 100 132 98C128.667 96.8333 120.3 94.7 115.5 97.5Z" fill="black"/>
<path d="M44 99.5C35.6 98.7 34.8333 94.8333 35.5 93C36.6999 94.2 38.6666 94.5 39.5 94.5C43.9 94.9 44.3333 98 44 99.5Z" fill="black"/>
<path d="M56 121.5C52 118 52 117 45 112.5C47.5 112.5 54.9803 116.394 58.5 120.5C61.5 124 66 126.5 71 127C66.5 128 61.8537 126.622 56 121.5Z" fill="black"/>
<path d="M217 49C219 47.8 218.167 45.5 217.5 44.5C221 43 224 45 224.5 45.5C224.9 45.9 227.667 46.3333 229 46.5L215.5 53C215.167 52.1667 215 50.2 217 49Z" fill="black"/>
<path d="M267.13 152C280.13 159.833 302.23 180.7 286.63 201.5C285.63 201.333 284.03 199.7 285.63 194.5C286.79 190.731 287.144 189.711 287.188 189.689C287.419 188.148 286.994 185.752 283.63 186.5C281.903 186.884 281.104 186.592 280.814 186.056L277.13 210C276.13 214.167 272.43 223.2 265.63 226C268.964 218.167 276.13 216 274.13 186C210.63 201.5 146.63 192 105.13 171.5C104.297 171.167 102.63 171.3 102.63 174.5C102.63 177.7 102.964 181.5 103.13 183C103.13 183.833 102.83 185.1 101.63 183.5C100.13 181.5 100.63 173.5 101.13 171.5C101.63 169.5 97.6305 172.5 97.6305 174C96.7972 174.833 95.2305 178 95.6305 184C93.9638 182 92.1305 175.2 98.1305 164C99.7972 161.833 102.731 156.2 101.13 151C102.797 150.167 107.23 149 111.63 151C116.297 152.333 127.23 154.6 133.63 153C134.797 152.667 137.83 151.4 140.63 149L150.63 144C149.964 146.833 145.43 153.1 132.63 155.5C127.297 156 114.63 156.2 106.63 153C104.63 157 104.141 166.78 118.13 174C149.13 190 240.63 199 274.13 181C280.13 178.333 288.43 170.8 273.63 162C270.63 160.667 265.131 156.8 267.13 152Z" fill="black"/>
<path fill-rule="evenodd" clip-rule="evenodd" d="M218 114.5C221.2 110.5 221.333 107.333 221 106.5C222.2 108.9 226 110.5 227 110L231.5 107.5C231.833 107.5 232.4 107.2 232 106C231.6 104.8 230.833 105.167 230.5 105.5C227.7 108.3 225.667 107.667 225 107C246.5 88 277 101 287.5 109C286.357 99.0964 276.056 87.5001 270.326 82.2419C288.69 98.8215 295.066 109.646 299.5 119.5C303.529 128.454 301.947 137.808 301.571 140.027L301.571 140.027C301.527 140.286 301.5 140.448 301.5 140.5C300.7 144.1 299.167 147.667 298.5 149C297.833 147.833 297.2 143.8 300 137C302.8 130.2 300.167 123.833 298.5 121.5C296.5 120.3 279.333 118.333 271 117.5C264.6 116.7 246 116.167 237.5 116C240.3 118.4 255.333 120.667 262.5 121.5C268.9 122.3 285.833 124.167 293.5 125C273.1 125 258 123 253 122C245 120.8 230 116.5 223.5 114.5C220.3 112.9 219.5 115.5 219.5 117C220.3 118.2 220.333 119.167 220 119.5C219.2 120.3 217.833 119.833 217.5 119.5C216.7 117.5 217.5 115.167 218 114.5ZM269.5 81.5C269.778 81.7486 270.053 81.9959 270.326 82.2419C270.038 81.9783 269.763 81.7307 269.5 81.5ZM239.5 107C233.9 107 230.833 110.667 230 112.5C230.692 112.154 233.778 112.287 236.442 112.402C237.628 112.453 238.73 112.5 239.5 112.5C241.5 112.5 241.333 111.167 241 110.5C239.4 110.5 239.333 108.167 239.5 107ZM263 101C262.5 102.333 262.4 105.4 266 107C266.667 107.667 267.8 109.7 267 112.5C265.667 112.333 263 112.5 263 114.5C264.667 114 269.4 113.4 275 115C278.667 116 287 117.3 291 114.5L263 101Z" fill="black"/>
<path d="M227.5 124.5C225.5 121.3 223 121.833 222 122.5C225 119 236 118.5 252 125C264.8 130.2 273.667 130.5 276.5 130C272.5 131.6 270 132 268 131.5C264.183 130.546 253.833 128 249 126C238.2 122.4 230.5 122.833 228 123.5C228 124.7 233 127.667 235.5 129C234.833 129.5 233.2 130.4 232 130C230.5 129.5 230 128.5 227.5 124.5Z" fill="black"/>
<path d="M250 141L239.5 134.5C241.1 133.3 245.833 136 248 137.5C250.4 139.5 254.333 140 256 140C256 141.6 255 141.667 254.5 141.5C251.849 141.121 251.678 142.506 251.95 143.361C251.968 143.407 251.984 143.453 252 143.5C251.982 143.456 251.966 143.409 251.95 143.361C251.515 142.226 250.481 141.32 250 141Z" fill="black"/>
<circle cx="175" cy="175" r="170" stroke="black" stroke-width="10"/>
<path d="M383.585 367.171H333.01C327.644 367.171 324.236 361.635 326.809 357.098L364.31 290.969C366.354 287.364 371.22 286.311 374.667 288.727L387.438 297.675C387.61 297.796 387.74 297.968 387.809 298.167L402.65 341.065C402.745 341.342 402.715 341.646 402.567 341.899L389.733 363.72C388.478 365.853 386.13 367.171 383.585 367.171Z" stroke="black" stroke-width="5" stroke-linecap="round"/>
<path d="M224.861 367.171H275.436C280.802 367.171 284.21 361.635 281.637 357.098L244.136 290.969C242.092 287.364 237.226 286.311 233.779 288.727L221.008 297.675C220.836 297.796 220.706 297.968 220.637 298.167L205.797 341.065C205.701 341.342 205.731 341.646 205.88 341.899L218.713 363.72C219.968 365.853 222.316 367.171 224.861 367.171Z" stroke="black" stroke-width="5" stroke-linecap="round"/>
<path fill-rule="evenodd" clip-rule="evenodd" d="M386.049 299.096C386.344 296.23 386.495 293.321 386.495 290.377C386.495 243.92 348.834 206.259 302.377 206.259C255.92 206.259 218.259 243.92 218.259 290.377C218.259 294.539 218.561 298.63 219.145 302.629L215.722 311.27C214.112 304.569 213.259 297.573 213.259 290.377C213.259 241.158 253.158 201.259 302.377 201.259C351.596 201.259 391.495 241.158 391.495 290.377C391.495 296.055 390.964 301.608 389.949 306.991L386.049 299.096Z" fill="black"/>
<path fill-rule="evenodd" clip-rule="evenodd" d="M396.278 319.801C399.187 310.51 400.754 300.627 400.754 290.377C400.754 236.045 356.709 192 302.377 192C248.045 192 204 236.045 204 290.377C204 302.571 206.218 314.246 210.274 325.022L207.61 331.746C202.072 319.079 199 305.087 199 290.377C199 233.283 245.283 187 302.377 187C359.471 187 405.754 233.283 405.754 290.377C405.754 302.944 403.512 314.988 399.405 326.129L396.278 319.801Z" fill="black"/>
</svg>
