<?xml version="1.0" encoding="UTF-8" standalone="no"?>
<svg
   xmlns:dc="http://purl.org/dc/elements/1.1/"
   xmlns:cc="http://creativecommons.org/ns#"
   xmlns:rdf="http://www.w3.org/1999/02/22-rdf-syntax-ns#"
   xmlns:svg="http://www.w3.org/2000/svg"
   xmlns="http://www.w3.org/2000/svg"
   xmlns:sodipodi="http://sodipodi.sourceforge.net/DTD/sodipodi-0.dtd"
   xmlns:inkscape="http://www.inkscape.org/namespaces/inkscape"
   width="69.684601mm"
   height="70.037613mm"
   viewBox="0 0 69.684601 70.037613"
   version="1.1"
   id="svg8"
   inkscape:version="1.0.1 (3bc2e813f5, 2020-09-07)"
   sodipodi:docname="рисунок.svg">
  <defs
     id="defs2" />
  <sodipodi:namedview
     id="base"
     pagecolor="#ffffff"
     bordercolor="#666666"
     borderopacity="1.0"
     inkscape:pageopacity="0.0"
     inkscape:pageshadow="2"
     inkscape:zoom="1.4"
     inkscape:cx="43.395409"
     inkscape:cy="125.54421"
     inkscape:document-units="mm"
     inkscape:current-layer="layer1"
     inkscape:document-rotation="0"
     showgrid="false"
     inkscape:window-width="1366"
     inkscape:window-height="745"
     inkscape:window-x="-8"
     inkscape:window-y="-8"
     inkscape:window-maximized="1" />
  <metadata
     id="metadata5">
    <rdf:RDF>
      <cc:Work
         rdf:about="">
        <dc:format>image/svg+xml</dc:format>
        <dc:type
           rdf:resource="http://purl.org/dc/dcmitype/StillImage" />
        <dc:title></dc:title>
      </cc:Work>
    </rdf:RDF>
  </metadata>
  <g
     inkscape:label="Слой 1"
     inkscape:groupmode="layer"
     id="layer1"
     transform="translate(-73.882,-105.27436)">
    <ellipse
       style="fill:#f2f2f2;stroke-width:0.299567"
       id="path1072"
       cx="108.65578"
       cy="140.52065"
       rx="32.316963"
       ry="32.600449" />
    <path
       style="fill:#000000;stroke:none;stroke-width:0.176389"
       d="m 106.14886,105.52572 c -7.619475,1.0009 -14.568485,3.27341 -20.461115,8.44231 -17.020324,14.93003 -15.304078,42.07928 2.99861,55.13435 3.38067,2.41141 7.27023,4.11339 11.288895,5.11774 4.13791,1.03435 8.46279,1.36755 12.7,0.85408 16.7857,-2.03465 30.11805,-16.14276 30.86118,-33.11084 0.86183,-19.68306 -16.8626,-39.13385 -37.38757,-36.43764 m 0.17639,3.1505 c 4.01232,-0.47341 8.521,0.19553 12.34722,1.42145 10.5463,3.37908 19.05918,12.26463 21.26386,23.22263 3.40096,16.9037 -8.90393,36.839 -26.73191,38.77628 -10.0644,1.09361 -20.692185,-1.91047 -27.862495,-9.32004 -13.711594,-14.16879 -10.846283,-38.47253 5.63749,-49.08971 4.76303,-3.0679 9.795765,-4.35577 15.345835,-5.01061 m -11.112505,7.18158 v 0.17639 c 3.41013,-0.93267 5.408625,-1.9377 8.819455,-0.35277 -1.39577,-3.52526 -6.596595,-0.99314 -8.819455,0.17638 m 21.519455,-0.35277 -0.35278,1.5875 2.11667,-1.23473 -1.76389,-0.35277 m 10.58333,7.9375 2.64583,4.23333 c -3.21204,-1.78118 -8.98119,-3.84986 -11.81805,-0.17639 l 1.23472,-0.35278 c -0.64523,0.74754 -1.19909,0.75036 -2.11667,0.52917 l -0.52916,2.29305 h 0.35277 l 0.17639,-0.17638 -0.17639,-0.70556 4.93889,1.02306 8.64306,0.91722 v -0.17639 l -9.70139,-1.41111 v -0.17639 c 2.85274,0 5.63827,0.14076 8.46667,0.52917 1.26083,0.17321 2.65183,0.14605 2.99861,1.5875 h 0.17639 c -0.26935,-3.08575 -2.85133,-6.21842 -5.29167,-7.9375 m -42.686115,3.52777 v 0.17639 l 16.404175,1.5875 v 0.17639 l -11.818065,-0.17639 v 0.17639 l 3.88056,0.52917 v 0.17639 l -3.175,-0.17639 v 0.52916 l 9.877775,-0.17638 v 0.17638 c -1.103485,-0.003 -2.692755,-0.59813 -3.351385,0.52917 1.95562,-0.24853 3.334635,-0.52705 5.115275,0.52917 l 3.03372,-2.79753 -1.62261,-1.78858 3.175,1.76389 c -1.26453,-1.71309 -3.64878,-2.55253 -5.64444,-3.06388 -5.127985,-1.3141 -11.335315,-1.16469 -15.875005,1.82915 m -2.64583,-2.11666 c 0.31535,0.89764 0.88095,1.06027 1.76389,1.23472 -0.26025,-0.87701 -0.90611,-1.10561 -1.76389,-1.23472 m 10.05416,0.17639 -0.52916,2.11666 -4.7625,-0.35278 c 0.85201,-1.39276 3.77564,-1.69774 5.29166,-1.76388 m 11.288895,2.82222 h -5.820835 c 0.25894,-0.9174 0.42933,-1.39718 0,-2.29306 2.218975,-0.41187 4.399845,0.53622 5.820835,2.29306 m 27.16389,1.05833 h -5.11528 v -0.17639 l 0.70556,-0.17639 -0.70556,-2.11666 5.11528,2.46944 m -9.34861,-0.52917 -1.94028,0.17639 c 0.40164,-1.05992 1.46615,-1.30704 1.94028,-0.17639 m -37.041675,0.17639 v 0.17639 c 1.45976,1.10825 2.63317,2.59997 4.58611,2.64584 l -4.58611,-2.82223 m 33.690285,1.5875 v 0.17639 l 2.29306,1.41111 v -0.17639 l -1.23473,-1.05833 8.64306,1.5875 c -2.3689,-1.26171 -7.0515,-2.57122 -9.70139,-1.94028 m 14.81667,1.41111 -0.70556,3.70417 h 0.17639 c 0.54134,-1.03258 1.00154,-2.57845 0.52917,-3.70417 m -11.64167,1.05834 v 0.17639 c 0.75283,0.49812 2.23979,1.86055 2.99861,0.88194 l -2.99861,-1.05833 m -26.281945,3.175 -1.23473,6.17361 h 0.17639 l 0.88195,-2.11667 c 0,0.79322 -0.15858,1.76954 0.52916,2.29306 v -2.46945 c 2.99597,0.86307 5.721355,2.35021 8.819455,3.06017 7.87911,1.80552 15.79721,1.38007 23.63611,-0.23794 0.22542,2.85626 -0.18944,5.06112 -1.5875,7.58472 2.67511,-1.38871 2.49308,-4.98087 2.82222,-7.58472 1.7526,0.43391 0.7359,1.59367 0.88195,2.99861 0.98354,-0.55969 1.21073,-1.93481 1.23207,-2.99861 0.055,-2.76031 -2.29729,-5.48411 -4.75985,-6.52639 -0.27076,2.00377 3.96628,2.59662 2.41317,4.57905 -1.36542,1.7429 -4.4233,2.18793 -6.47012,2.51989 -6.17149,1.00083 -13.18877,0.29016 -19.22638,-1.21232 -2.59433,-0.6454 -8.133475,-2.07186 -7.055565,-5.71023 2.44669,1.03928 6.904395,1.07632 8.290285,-1.5875 l -3.88056,1.69439 -5.468055,-0.45967 m 0,3.88055 -0.17639,0.17639 0.17639,-0.17639 m 26.987505,13.05278 c -3.15948,7.18326 -14.19525,4.20105 -19.22639,1.41111 2.88096,3.90243 10.44822,3.83611 14.64027,2.79929 1.66229,-0.41116 5.25728,-1.93428 4.58612,-4.2104 m 1.23472,2.29306 c 0.60907,1.48501 1.15235,2.94657 1.04246,4.58611 -0.0799,1.19433 -0.3205,2.4167 -0.76959,3.52778 -2.76595,6.84318 -11.25255,3.54418 -16.32426,1.51694 -1.24883,-0.49918 -2.54512,-1.14053 -3.88056,-1.34056 v 0.17639 c 4.4854,1.86496 8.77112,4.05659 13.75834,4.05695 1.23313,0 2.91976,0.21255 4.05006,-0.38418 1.18428,-0.6253 2.25443,-2.37119 2.92559,-3.49638 0.55721,-0.93415 1.06274,-1.93834 1.31463,-2.99861 h -0.17639 l -0.52917,0.70556 0.17639,-4.40973 -0.52917,0.35278 -0.52917,-2.46944 -0.52916,0.17639 m 2.29305,1.5875 -0.17638,3.88055 h 0.17638 c 0.15928,-1.25342 0.69639,-2.71797 0,-3.88055 m -29.986115,1.05833 c 2.81834,4.94647 8.560515,9.49096 14.287505,10.23055 v -0.17638 c -3.4514,-0.79852 -7.13211,-2.68411 -9.69874,-5.13116 -1.569515,-1.49613 -2.529775,-4.04406 -4.588765,-4.92301 m 31.044455,0.88194 c -0.25841,3.24679 -2.01842,5.79156 -3.35139,8.64306 1.95333,-1.4418 4.38679,-6.17555 3.35139,-8.64306 m -30.691675,1.5875 c 1.15253,2.67459 3.831875,5.69772 6.702785,6.52639 v -0.17639 z"
       id="path228" />
  </g>
</svg>
